:version 1.10
:name ASF
:units
  mass 1
  length 1
  angle deg
:documentation
  ASF file generated by Kaydara
:root
  axis xyz
  order  tx ty tz rx ry rz
  position 0 0 0
  orientation 0 0 0
:bonedata
  begin
    id 1
    name SpineDummy
    direction 0.999998 -0.00179978 1.38929e-006
    length 3.60008
    axis 0 0 0 xyz
  end
  begin
    id 2
    name Spine
    direction 0.964365 0.262802 0.0305839
    length 8.13928
    axis 1.33928 -1.75354 15.2838 xyz
    dof rx ry rz
  end
  begin
    id 3
    name Spine1
    direction 0.811168 0.572065 0.12144
    length 7.14954
    axis 2.2224 -6.9761 35.2157 xyz
    dof rx ry rz
  end
  begin
    id 4
    name Neck
    direction 0 0 0
    length 0
    axis 2.2224 -6.9761 35.2157 xyz
    dof rx ry rz
  end
  begin
    id 5
    name HeadDummy
    direction 0.810939 0.572387 0.121455
    length 3.55534
    axis 2.2224 -6.9761 35.2157 xyz
  end
  begin
    id 6
    name Head
    direction 0.998226 -0.000232542 0.0595419
    length 7.35666
    axis -3.03688 -3.41352 -0.0133467 xyz
    dof rx ry rz
  end
  begin
    id 7
    name R_ClavicleDummy
    direction 0.531669 -0.194489 -0.824319
    length 2.49392
    axis 2.2224 -6.9761 35.2157 xyz
  end
  begin
    id 8
    name R_Clavicle
    direction -0.155119 0.0480802 -0.986725
    length 4.485
    axis -54.2764 80.6538 162.779 xyz
    dof rx ry rz
  end
  begin
    id 9
    name R_UpperArm
    direction -0.955567 0.200068 -0.216484
    length 10.1122
    axis -72.9943 12.5026 168.175 xyz
    dof rx ry rz
  end
  begin
    id 10
    name R_Forearm
    direction -0.61433 0.385743 0.688332
    length 9.39148
    axis -117.015 -43.4982 147.875 xyz
    dof rx ry rz
  end
  begin
    id 11
    name R_Hand
    direction -0.699429 0.0170333 0.714499
    length 3.66324
    axis -45.0303 -36.7097 175.478 xyz
    dof rx ry rz
  end
  begin
    id 12
    name L_ClavicleDummy
    direction 0.40287 -0.36502 0.839319
    length 2.49392
    axis 2.2224 -6.9761 35.2157 xyz
  end
  begin
    id 13
    name L_Clavicle
    direction -0.231271 -0.0726419 0.970174
    length 4.485
    axis 18.4357 -75.9711 -162.563 xyz
    dof rx ry rz
  end
  begin
    id 14
    name L_UpperArm
    direction -0.917494 0.144359 0.370629
    length 10.1122
    axis 56.0417 -21.7544 171.058 xyz
    dof rx ry rz
  end
  begin
    id 15
    name L_Forearm
    direction -0.496786 0.615074 -0.612281
    length 9.39148
    axis 89.8094 37.7546 128.927 xyz
    dof rx ry rz
  end
  begin
    id 16
    name L_Hand
    direction -0.409932 0.64962 -0.640274
    length 3.66324
    axis -0.424369 32.133 128.52 xyz
    dof rx ry rz
  end
  begin
    id 17
    name L_ThighDummy
    direction -1.84081e-006 1.87549e-006 1
    length 3.13049
    axis 0 0 0 xyz
  end
  begin
    id 18
    name L_Thigh
    direction -0.947739 0.307978 0.083308
    length 17.9961
    axis 173.219 -4.77873 161.998 xyz
    dof rx ry rz
  end
  begin
    id 19
    name L_Calf
    direction -0.728814 -0.684427 0.0197583
    length 13.3367
    axis 167.331 -1.13214 -136.799 xyz
    dof rx ry rz
  end
  begin
    id 20
    name L_Foot
    direction -0.9028 0.418719 0.0981191
    length 5.8674
    axis 163.436 11.5135 -155.37 xyz
    dof rx ry rz
  end
  begin
    id 21
    name L_Toe0
    direction -0.35341 0.886259 0.299411
    length 4.75286
    axis 169.316 -17.4222 111.74 xyz
    dof rx ry rz
  end
  begin
    id 22
    name R_ThighDummy
    direction 9.32778e-007 -8.82053e-007 -1
    length 3.13049
    axis 0 0 0 xyz
  end
  begin
    id 23
    name R_Thigh
    direction -0.925064 0.37528 -0.0585023
    length 17.9961
    axis -178.698 3.35385 157.919 xyz
    dof rx ry rz
  end
  begin
    id 24
    name R_Calf
    direction -0.68969 -0.718776 -0.0876886
    length 13.3367
    axis -160.504 5.03065 -133.817 xyz
    dof rx ry rz
  end
  begin
    id 25
    name R_Foot
    direction -0.857405 0.418858 -0.299022
    length 5.8674
    axis -161.328 4.38911 -154.413 xyz
    dof rx ry rz
  end
  begin
    id 26
    name R_Toe0
    direction -0.100745 0.952789 -0.286433
    length 4.75286
    axis 171.683 16.6445 96.0359 xyz
    dof rx ry rz
  end
:hierarchy
  begin
    root SpineDummy L_ThighDummy R_ThighDummy
    SpineDummy Spine
    Spine Spine1
    Spine1 Neck
    Neck HeadDummy R_ClavicleDummy L_ClavicleDummy
    HeadDummy Head
    R_ClavicleDummy R_Clavicle
    R_Clavicle R_UpperArm
    R_UpperArm R_Forearm
    R_Forearm R_Hand
    L_ClavicleDummy L_Clavicle
    L_Clavicle L_UpperArm
    L_UpperArm L_Forearm
    L_Forearm L_Hand
    L_ThighDummy L_Thigh
    L_Thigh L_Calf
    L_Calf L_Foot
    L_Foot L_Toe0
    R_ThighDummy R_Thigh
    R_Thigh R_Calf
    R_Calf R_Foot
    R_Foot R_Toe0
  end

:SAMPLES-PER-SECOND 30
:FULLY-SPECIFIED
:DEGREES
276
root  8.90037 34.8004 -18.7754 133.943 49.224 -43.8571
Spine  7.37729 18.0742 24.2068
Spine1  2.65486 -18.2982 -28.6549
Neck  3.97569e-016 0 -2.38542e-015
Head  5.60752 8.97768 16.711
R_Clavicle  5.57541 37.4729 12.3954
R_UpperArm  58.5127 44.4285 -7.89782
R_Forearm  113.619 6.29988 8.00041
R_Hand  -12.6067 -0.575512 -136.891
L_Clavicle  -1.09896 -6.27097 6.60858
L_UpperArm  -33.5789 -52.3849 -7.54594
L_Forearm  -83.1426 10.8508 13.406
L_Hand  30.3441 -44.763 -70.8467
L_Thigh  -33.1989 39.8603 4.81628
L_Calf  -1.15859 -4.51009 35.8554
L_Foot  -0.0504097 5.6692 -5.79649
L_Toe0  0.505156 0.0344457 -6.1361
R_Thigh  -19.6618 -59.5448 37.3716
R_Calf  9.93538 -2.25441 -7.1493
R_Foot  -2.13692 -3.9036 6.57055
R_Toe0  -1.78853 -0.271767 -17.3235
277
root  7.59086 34.8418 -19.1886 105.704 53.4651 -55.5202
Spine  13.5981 22.8931 29.6475
Spine1  10.3618 -32.6142 -33.3499
Neck  3.97569e-016 0 -2.38542e-015
Head  2.9661 10.95 19.1625
R_Clavicle  2.0817 35.0157 5.57784
R_UpperArm  64.2518 43.7601 1.07172
R_Forearm  93.5631 5.1449 6.54263
R_Hand  -55.0428 30.9181 -136.906
L_Clavicle  -2.50421 -4.39949 14.6209
L_UpperArm  -25.9679 -56.4132 -19.1415
L_Forearm  -73.9429 12.9963 17.4084
L_Hand  26.2555 -37.4316 -76.4929
L_Thigh  -36.7582 35.4368 9.57005
L_Calf  2.8998 -3.96524 29.7177
L_Foot  0.100417 4.30048 -4.04654
L_Toe0  0.505156 0.0344457 -6.1361
R_Thigh  -18.1085 -56.9226 30.7998
R_Calf  12.2398 -3.83036 -12.098
R_Foot  -1.9848 -3.30088 6.97283
R_Toe0  -1.78853 -0.27175 -17.3235
278
root  6.38515 34.9211 -19.1377 76.5499 56.2021 -68.3537
Spine  19.7662 23.5848 34.2349
Spine1  19.2845 -42.1845 -38.2393
Neck  3.97569e-016 0 -2.38542e-015
Head  -0.47422 11.7633 23.8291
R_Clavicle  -0.626927 29.2775 -0.265616
R_UpperArm  69.7195 42.8879 10.059
R_Forearm  67.8531 -6.44107 13.6909
R_Hand  -33.1112 63.7846 -69.1537
L_Clavicle  -3.35686 -3.58247 20.0881
L_UpperArm  -14.6962 -63.0686 -30.4085
L_Forearm  -61.6446 18.3317 21.7507
L_Hand  23.4425 -40.1538 -64.9812
L_Thigh  -38.9062 32.8664 17.8442
L_Calf  2.67968 -3.79246 28.2422
L_Foot  0.38931 5.29265 -3.71558
L_Toe0  0.505156 0.0344457 -6.1361
R_Thigh  -16.2103 -54.9275 22.9295
R_Calf  13.8275 -4.80147 -15.2056
R_Foot  -2.06294 -2.86137 8.51908
R_Toe0  -1.78853 -0.271732 -17.3235
279
root  5.48585 35.0639 -18.641 45.1007 57.3021 -84.109
Spine  24.1769 22.1818 35.8722
Spine1  25.6751 -46.284 -40.1257
Neck  3.97569e-016 0 -2.38542e-015
Head  0.58326 13.2328 29.5198
R_Clavicle  -1.63848 24.6456 -3.01015
R_UpperArm  63.0074 58.0832 9.13573
R_Forearm  34.6457 -31.3158 35.9532
R_Hand  3.3673 26.0348 0.0834754
L_Clavicle  -3.82075 -3.72656 22.6036
L_UpperArm  -10.0701 -69.0418 -32.2609
L_Forearm  -55.9401 17.7334 18.8009
L_Hand  26.2236 -45.604 -62.8175
L_Thigh  -39.6362 33.7702 27.4667
L_Calf  0.376234 -4.01725 30.0524
L_Foot  1.09216 5.13478 -0.676019
L_Toe0  0.505156 0.0344457 -6.1361
R_Thigh  -14.6189 -53.3278 14.387
R_Calf  13.7985 -5.41084 -17.1841
R_Foot  -2.80708 -3.99874 10.5612
R_Toe0  -1.78853 -0.271714 -17.3235
280
root  4.91645 35.2488 -17.8994 14.776 54.6642 -100.834
Spine  26.2382 21.484 35.9628
Spine1  28.5134 -47.1608 -41.4626
Neck  3.97569e-016 0 -2.38542e-015
Head  5.5616 15.4373 34.7642
R_Clavicle  -1.939 23.661 -3.90169
R_UpperArm  58.9275 59.1694 13.0164
R_Forearm  29.1235 -28.6362 27.3687
R_Hand  4.21721 12.6613 11.6355
L_Clavicle  -4.22369 -3.60643 24.9994
L_UpperArm  -12.7705 -73.3265 -28.2939
L_Forearm  -44.0619 14.179 15.3041
L_Hand  29.191 -45.2974 -68.9399
L_Thigh  -37.2071 35.149 38.5359
L_Calf  -0.403423 -4.60088 34.904
L_Foot  1.43932 4.28806 1.58457
L_Toe0  0.505156 0.0344457 -6.1361
R_Thigh  -12.4559 -52.0604 4.24007
R_Calf  12.28 -5.64066 -17.9352
R_Foot  -3.32695 -4.89059 11.5897
R_Toe0  -1.78853 -0.271696 -17.3235
281
root  4.63446 35.4479 -16.7974 -10.4133 48.054 -114.028
Spine  26.923 21.3523 37.0026
Spine1  29.6348 -46.076 -44.5077
Neck  3.97569e-016 0 -2.38542e-015
Head  9.39732 17.9423 37.6368
R_Clavicle  -1.48096 25.084 -2.5883
R_UpperArm  59.3504 56.2593 21.4878
R_Forearm  29.2421 -18.4312 15.9854
R_Hand  1.85977 6.08403 6.12236
L_Clavicle  -4.73259 -3.1696 28.3786
L_UpperArm  -12.4375 -77.5017 -28.5286
L_Forearm  -23.4319 13.884 17.2523
L_Hand  24.1975 -41.0951 -65.4074
L_Thigh  -34.3065 34.0236 49.1388
L_Calf  0.747886 -5.27482 39.7832
L_Foot  1.53303 5.47983 0.734638
L_Toe0  0.505156 0.0344457 -6.1361
R_Thigh  -10.7822 -50.7421 -5.03465
R_Calf  9.95481 -5.94392 -18.9262
R_Foot  -3.43483 -4.86428 12.2583
R_Toe0  -1.78853 -0.271678 -17.3236
282
root  4.81245 35.5057 -15.2552 -30.4496 39.035 -121.922
Spine  27.2254 21.4687 38.5882
Spine1  29.1444 -44.5393 -46.1747
Neck  3.97569e-016 0 -2.38542e-015
Head  9.34046 20.9917 37.9266
R_Clavicle  -0.784795 25.3823 -0.825614
R_UpperArm  67.0119 51.012 34.753
R_Forearm  32.0621 -9.80391 8.22716
R_Hand  0.0265048 9.31421 -12.4811
L_Clavicle  -5.61978 -3.98121 32.2421
L_UpperArm  -29.8221 -81.8871 -8.50576
L_Forearm  -12.003 12.2984 16.0085
L_Hand  22.8655 -42.5227 -60.0079
L_Thigh  -32.1663 29.6475 56.5361
L_Calf  1.11974 -5.3041 38.8865
L_Foot  1.85372 6.38408 1.10203
L_Toe0  0.505156 0.0344457 -6.1361
R_Thigh  -9.57306 -50.1844 -9.39397
R_Calf  10.121 -6.82344 -21.8643
R_Foot  -4.34802 -6.40209 13.8062
R_Toe0  -1.78853 -0.27166 -17.3236
283
root  5.70513 35.3178 -13.7222 -47.7181 29.588 -125.366
Spine  27.5361 22.5247 39.2625
Spine1  27.4228 -43.9866 -44.6056
Neck  3.97569e-016 0 -2.38542e-015
Head  5.45824 23.6705 38.411
R_Clavicle  -0.705701 22.2908 -0.849572
R_UpperArm  75.8629 41.9261 49.198
R_Forearm  38.7269 -3.65369 3.01383
R_Hand  -3.19733 13.1879 -31.6021
L_Clavicle  -6.22297 -3.98225 35.4769
L_UpperArm  -74.707 -81.7244 40.7309
L_Forearm  -7.04196 8.89633 10.9395
L_Hand  21.9831 -44.3543 -55.6344
L_Thigh  -29.7621 23.5894 58.7341
L_Calf  -1.64043 -4.2867 32.4397
L_Foot  2.08258 6.184 2.1797
L_Toe0  0.505156 0.0344457 -6.1361
R_Thigh  -6.90254 -50.2908 -8.71115
R_Calf  13.7078 -7.55421 -24.341
R_Foot  -5.0468 -7.64451 14.7287
R_Toe0  -1.78853 -0.271642 -17.3236
284
root  7.30866 34.9235 -12.8461 -65.2551 20.8576 -125.856
Spine  28.2067 24.795 38.6421
Spine1  26.0621 -43.8387 -41.2507
Neck  3.97569e-016 0 -2.38542e-015
Head  -2.03885 23.5842 41.4481
R_Clavicle  -0.684608 15.2676 -1.41004
R_UpperArm  82.6585 32.377 59.1325
R_Forearm  43.5525 0.227184 -0.21596
R_Hand  -5.46191 11.7284 -46.5521
L_Clavicle  -5.55572 -1.20559 36.167
L_UpperArm  -103.573 -81.5168 72.8796
L_Forearm  6.81897 10.735 11.785
L_Hand  12.8978 -34.2239 -46.0566
L_Thigh  -29.438 19.0874 54.1305
L_Calf  -2.64463 -3.69457 28.7384
L_Foot  2.23964 7.65218 1.34959
L_Toe0  0.505156 0.0344457 -6.1361
R_Thigh  -2.80004 -49.1902 -6.65788
R_Calf  13.1571 -6.05262 -19.2896
R_Foot  -3.74335 -5.37819 12.889
R_Toe0  -1.78853 -0.271624 -17.3236
285
root  9.12782 34.5215 -12.9711 -84.1005 12.8539 -124.54
Spine  28.047 26.9295 36.6627
Spine1  23.9673 -40.9537 -36.97
Neck  3.97569e-016 0 -2.38542e-015
Head  -9.85315 19.051 45.9448
R_Clavicle  -0.187201 8.32608 -0.0432736
R_UpperArm  89.1298 24.4611 63.0675
R_Forearm  44.653 2.8111 -2.36476
R_Hand  -6.996 11.0967 -56.5317
L_Clavicle  -4.53983 0.900795 33.3024
L_UpperArm  -112.618 -77.9562 88.866
L_Forearm  26.9445 15.3349 15.5629
L_Hand  8.32424 -25.5464 -43.7828
L_Thigh  -26.9124 17.434 42.6406
L_Calf  -2.60518 -5.98114 34.3083
L_Foot  2.86201 11.5849 0.132711
L_Toe0  0.505156 0.0344457 -6.1361
R_Thigh  4.52793 -46.2548 -9.94121
R_Calf  3.37846 -0.623477 -2.10443
R_Foot  -1.06603 -0.869078 5.93622
R_Toe0  -1.78853 -0.271606 -17.3236
286
root  10.34 34.7838 -13.9644 -106.525 6.09003 -120.751
Spine  25.4992 25.1957 32.8934
Spine1  20.5858 -32.7337 -32.8066
Neck  3.97569e-016 0 -2.38542e-015
Head  -14.5515 11.7171 48.5461
R_Clavicle  0.0635773 6.66684 0.745456
R_UpperArm  95.1416 18.4809 60.9178
R_Forearm  42.2178 4.93243 -4.13823
R_Hand  -7.68412 10.425 -61.7755
L_Clavicle  -4.29528 -0.48044 29.3541
L_UpperArm  -95.9081 -60.6273 86.4324
L_Forearm  32.1229 13.3464 10.8409
L_Hand  12.3654 -30.8519 -49.7502
L_Thigh  -9.34839 22.0906 27.3831
L_Calf  -17.4837 -12.7847 45.2494
L_Foot  3.43965 15.9316 -1.28406
L_Toe0  0.505156 0.0344457 -6.1361
R_Thigh  13.4631 -41.1505 -17.9367
R_Calf  -6.21587 6.80931 21.6263
R_Foot  2.36742 7.10577 -6.98116
R_Toe0  -1.78853 -0.271588 -17.3236
287
root  10.482 35.9016 -15.1108 -132.898 3.91467 -115.142
Spine  21.5137 19.7488 27.608
Spine1  17.4708 -21.6564 -31.2359
Neck  3.97569e-016 0 -2.38542e-015
Head  -17.0156 4.49139 48.6623
R_Clavicle  0.346565 7.92239 1.89909
R_UpperArm  98.6957 20.3193 56.911
R_Forearm  38.4633 4.88677 -4.09939
R_Hand  -7.58507 8.72681 -65.3088
L_Clavicle  -5.89061 -5.07092 32.2576
L_UpperArm  -76.8655 -38.1102 81.6549
L_Forearm  36.4561 5.62182 0.651933
L_Hand  20.0421 -45.9265 -49.8571
L_Thigh  -6.94442 32.2413 12.3752
L_Calf  -26.8692 -10.8542 51.096
L_Foot  4.26339 19.0065 -0.953472
L_Toe0  0.505156 0.0344457 -6.1361
R_Thigh  20.8851 -34.7119 -24.3193
R_Calf  -9.41531 11.4923 39.3644
R_Foot  3.67809 12.5294 -17.2151
R_Toe0  -1.78853 -0.27157 -17.3236
288
root  9.93745 37.1583 -15.7475 -158.967 6.71552 -113.701
Spine  17.2447 14.8458 20.7757
Spine1  14.3884 -13.2761 -32.2229
Neck  3.97569e-016 0 -2.38542e-015
Head  -20.3331 -1.10438 48.8782
R_Clavicle  -0.285618 9.44133 -0.606784
R_UpperArm  100.851 25.1003 58.4222
R_Forearm  33.7452 2.97409 -2.49927
R_Hand  -7.55468 10.9871 -59.8308
L_Clavicle  -11.7388 -18.6005 40.0335
L_UpperArm  -57.9013 -22.7795 65.7041
L_Forearm  32.1423 4.97083 4.01526
L_Hand  0.447298 -34.4137 -5.64562
L_Thigh  -15.0057 40.5399 -0.444315
L_Calf  -32.1235 -10.8852 52.002
L_Foot  5.80485 22.2431 1.08293
L_Toe0  0.505156 0.0344457 -6.1361
R_Thigh  23.4999 -30.0929 -26.802
R_Calf  -9.41259 12.4054 45.8503
R_Foot  3.39993 11.0541 -17.4187
R_Toe0  -1.78853 -0.271552 -17.3236
289
root  9.36352 38.0402 -15.7561 178.37 7.47882 -119.42
Spine  12.3001 11.8858 12.8772
Spine1  10.9244 -11.0386 -34.5251
Neck  3.97569e-016 0 -2.38542e-015
Head  -24.4224 -4.39824 50.2899
R_Clavicle  -2.63292 20.4623 -6.23191
R_UpperArm  100.151 19.4941 64.9581
R_Forearm  27.5444 1.74833 -1.47907
R_Hand  -5.64162 12.9271 -46.3262
L_Clavicle  -15.0645 -32.2126 37.7244
L_UpperArm  -56.3017 -25.9778 54.8324
L_Forearm  -28.7632 30.5885 50.8789
L_Hand  1.14097 -1.29888 7.1583
L_Thigh  -19.123 41.909 -6.14771
L_Calf  -35.3503 -12.3963 52.5714
L_Foot  6.80285 23.7084 2.64595
L_Toe0  0.505156 0.0344457 -6.1361
R_Thigh  21.4163 -29.1638 -26.9712
R_Calf  -5.85798 12.3727 48.54
R_Foot  3.06358 9.23724 -13.3103
R_Toe0  -1.78853 -0.271534 -17.3236
